REM GENRE Classical
REM DATE 2010
PERFORMER "Various Artists"
TITLE "Per-Track WAV Album"
FILE "01 - Prelude.wav" WAVE
  TRACK 01 AUDIO
    TITLE "Prelude"
    PERFORMER "Orchestra A"
    INDEX 01 00:00:00
FILE "02 - Allegro.wav" WAVE
  TRACK 02 AUDIO
    TITLE "Allegro"
    PERFORMER "Orchestra B"
    INDEX 01 00:00:00
FILE "03 - Finale.wav" WAVE
  TRACK 03 AUDIO
    TITLE "Finale"
    PERFORMER "Orchestra A"
    INDEX 01 00:00:00
